<svg id="visual" viewBox="0 0 960 300" width="960" height="300" xmlns="http://www.w3.org/2000/svg" xmlns:xlink="http://www.w3.org/1999/xlink" version="1.1"><rect width="960" height="300" fill="#001220"></rect><g><g transform="translate(389 164)"><path d="M66.3 -38.8C79.4 -15.4 79.3 15.1 66 41C52.7 66.9 26.4 88.2 -4.4 90.8C-35.1 93.3 -70.3 77.1 -87.1 49.1C-103.9 21.2 -102.4 -18.5 -84.8 -44.5C-67.3 -70.4 -33.6 -82.6 -3.5 -80.5C26.5 -78.5 53.1 -62.2 66.3 -38.8Z" fill="#8e0ff7"></path></g><g transform="translate(68 199)"><path d="M44.4 -23.2C52.9 -10.9 52 9.3 43 22C34.1 34.7 17 39.9 -1.3 40.6C-19.5 41.3 -39.1 37.6 -48.2 24.8C-57.4 12 -56.1 -9.9 -46.4 -22.9C-36.6 -35.9 -18.3 -40.1 -0.2 -40C18 -39.9 35.9 -35.5 44.4 -23.2Z" fill="#8e0ff7"></path></g><g transform="translate(855 209)"><path d="M37.6 -20C46.6 -6.1 50.3 12.5 43.1 27C36 41.5 18 51.9 1 51.3C-16 50.7 -31.9 39.2 -40 24.1C-48.1 9.1 -48.3 -9.5 -40.4 -22.8C-32.4 -36 -16.2 -44 -0.9 -43.5C14.3 -42.9 28.6 -33.8 37.6 -20Z" fill="#8e0ff7"></path></g><g transform="translate(627 75)"><path d="M41.4 -24.6C48.2 -12.1 44.5 5.8 35.9 18.8C27.3 31.9 13.6 40.2 -0.4 40.4C-14.4 40.6 -28.9 32.8 -36.2 20.5C-43.6 8.2 -43.8 -8.6 -36.6 -21.4C-29.4 -34.2 -14.7 -42.9 1.3 -43.7C17.3 -44.4 34.5 -37.2 41.4 -24.6Z" fill="#8e0ff7"></path></g></g></svg>