<svg id="visual" viewBox="0 0 960 300" width="960" height="300" xmlns="http://www.w3.org/2000/svg" xmlns:xlink="http://www.w3.org/1999/xlink" version="1.1"><rect x="0" y="0" width="960" height="300" fill="#001220"></rect><path d="M0 172L22.8 177.7C45.7 183.3 91.3 194.7 137 195.5C182.7 196.3 228.3 186.7 274 187.8C319.7 189 365.3 201 411.2 198.3C457 195.7 503 178.3 548.8 182.2C594.7 186 640.3 211 686 224.5C731.7 238 777.3 240 823 239C868.7 238 914.3 234 937.2 232L960 230L960 0L937.2 0C914.3 0 868.7 0 823 0C777.3 0 731.7 0 686 0C640.3 0 594.7 0 548.8 0C503 0 457 0 411.2 0C365.3 0 319.7 0 274 0C228.3 0 182.7 0 137 0C91.3 0 45.7 0 22.8 0L0 0Z" fill="#280644"></path><path d="M0 179L22.8 177.5C45.7 176 91.3 173 137 163.7C182.7 154.3 228.3 138.7 274 139.8C319.7 141 365.3 159 411.2 167C457 175 503 173 548.8 164.3C594.7 155.7 640.3 140.3 686 143.2C731.7 146 777.3 167 823 176C868.7 185 914.3 182 937.2 180.5L960 179L960 0L937.2 0C914.3 0 868.7 0 823 0C777.3 0 731.7 0 686 0C640.3 0 594.7 0 548.8 0C503 0 457 0 411.2 0C365.3 0 319.7 0 274 0C228.3 0 182.7 0 137 0C91.3 0 45.7 0 22.8 0L0 0Z" fill="#59155f"></path><path d="M0 96L22.8 105.2C45.7 114.3 91.3 132.7 137 138.3C182.7 144 228.3 137 274 136.5C319.7 136 365.3 142 411.2 135.5C457 129 503 110 548.8 111.8C594.7 113.7 640.3 136.3 686 139C731.7 141.7 777.3 124.3 823 122.3C868.7 120.3 914.3 133.7 937.2 140.3L960 147L960 0L937.2 0C914.3 0 868.7 0 823 0C777.3 0 731.7 0 686 0C640.3 0 594.7 0 548.8 0C503 0 457 0 411.2 0C365.3 0 319.7 0 274 0C228.3 0 182.7 0 137 0C91.3 0 45.7 0 22.8 0L0 0Z" fill="#8c2776"></path><path d="M0 91L22.8 88C45.7 85 91.3 79 137 73.7C182.7 68.3 228.3 63.7 274 69.5C319.7 75.3 365.3 91.7 411.2 100.5C457 109.3 503 110.7 548.8 103.8C594.7 97 640.3 82 686 80.2C731.7 78.3 777.3 89.7 823 94.5C868.7 99.3 914.3 97.7 937.2 96.8L960 96L960 0L937.2 0C914.3 0 868.7 0 823 0C777.3 0 731.7 0 686 0C640.3 0 594.7 0 548.8 0C503 0 457 0 411.2 0C365.3 0 319.7 0 274 0C228.3 0 182.7 0 137 0C91.3 0 45.7 0 22.8 0L0 0Z" fill="#c23c88"></path><path d="M0 51L22.8 50.2C45.7 49.3 91.3 47.7 137 48.2C182.7 48.7 228.3 51.3 274 51.7C319.7 52 365.3 50 411.2 50.5C457 51 503 54 548.8 54.2C594.7 54.3 640.3 51.7 686 51.2C731.7 50.7 777.3 52.3 823 50.5C868.7 48.7 914.3 43.3 937.2 40.7L960 38L960 0L937.2 0C914.3 0 868.7 0 823 0C777.3 0 731.7 0 686 0C640.3 0 594.7 0 548.8 0C503 0 457 0 411.2 0C365.3 0 319.7 0 274 0C228.3 0 182.7 0 137 0C91.3 0 45.7 0 22.8 0L0 0Z" fill="#f85596"></path></svg>