<svg id="visual" viewBox="0 0 960 300" width="960" height="300" xmlns="http://www.w3.org/2000/svg" xmlns:xlink="http://www.w3.org/1999/xlink" version="1.1"><rect x="0" y="0" width="960" height="300" fill="#001220"></rect><path d="M0 226L22.8 220.3C45.7 214.7 91.3 203.3 137 206.5C182.7 209.7 228.3 227.3 274 225.3C319.7 223.3 365.3 201.7 411.2 199.5C457 197.3 503 214.7 548.8 226.2C594.7 237.7 640.3 243.3 686 240.3C731.7 237.3 777.3 225.7 823 213.7C868.7 201.7 914.3 189.3 937.2 183.2L960 177L960 0L937.2 0C914.3 0 868.7 0 823 0C777.3 0 731.7 0 686 0C640.3 0 594.7 0 548.8 0C503 0 457 0 411.2 0C365.3 0 319.7 0 274 0C228.3 0 182.7 0 137 0C91.3 0 45.7 0 22.8 0L0 0Z" fill="#fa7268"></path><path d="M0 163L22.8 161.8C45.7 160.7 91.3 158.3 137 161.5C182.7 164.7 228.3 173.3 274 177.2C319.7 181 365.3 180 411.2 180.8C457 181.7 503 184.3 548.8 182.3C594.7 180.3 640.3 173.7 686 176.2C731.7 178.7 777.3 190.3 823 185.2C868.7 180 914.3 158 937.2 147L960 136L960 0L937.2 0C914.3 0 868.7 0 823 0C777.3 0 731.7 0 686 0C640.3 0 594.7 0 548.8 0C503 0 457 0 411.2 0C365.3 0 319.7 0 274 0C228.3 0 182.7 0 137 0C91.3 0 45.7 0 22.8 0L0 0Z" fill="#ef5f67"></path><path d="M0 132L22.8 129.3C45.7 126.7 91.3 121.3 137 125.3C182.7 129.3 228.3 142.7 274 147.7C319.7 152.7 365.3 149.3 411.2 140.2C457 131 503 116 548.8 108.8C594.7 101.7 640.3 102.3 686 100C731.7 97.7 777.3 92.3 823 96.8C868.7 101.3 914.3 115.7 937.2 122.8L960 130L960 0L937.2 0C914.3 0 868.7 0 823 0C777.3 0 731.7 0 686 0C640.3 0 594.7 0 548.8 0C503 0 457 0 411.2 0C365.3 0 319.7 0 274 0C228.3 0 182.7 0 137 0C91.3 0 45.7 0 22.8 0L0 0Z" fill="#e34c67"></path><path d="M0 113L22.8 110.3C45.7 107.7 91.3 102.3 137 98.2C182.7 94 228.3 91 274 84.7C319.7 78.3 365.3 68.7 411.2 65.3C457 62 503 65 548.8 70.3C594.7 75.7 640.3 83.3 686 86.7C731.7 90 777.3 89 823 89.5C868.7 90 914.3 92 937.2 93L960 94L960 0L937.2 0C914.3 0 868.7 0 823 0C777.3 0 731.7 0 686 0C640.3 0 594.7 0 548.8 0C503 0 457 0 411.2 0C365.3 0 319.7 0 274 0C228.3 0 182.7 0 137 0C91.3 0 45.7 0 22.8 0L0 0Z" fill="#d53867"></path><path d="M0 47L22.8 51.2C45.7 55.3 91.3 63.7 137 63.8C182.7 64 228.3 56 274 52.8C319.7 49.7 365.3 51.3 411.2 49.5C457 47.7 503 42.3 548.8 41.8C594.7 41.3 640.3 45.7 686 49.2C731.7 52.7 777.3 55.3 823 52C868.7 48.7 914.3 39.3 937.2 34.7L960 30L960 0L937.2 0C914.3 0 868.7 0 823 0C777.3 0 731.7 0 686 0C640.3 0 594.7 0 548.8 0C503 0 457 0 411.2 0C365.3 0 319.7 0 274 0C228.3 0 182.7 0 137 0C91.3 0 45.7 0 22.8 0L0 0Z" fill="#c62368"></path></svg>